<svg width="51" height="56" viewBox="0 0 51 56" fill="none" xmlns="http://www.w3.org/2000/svg">
<path d="M48.7983 30.6008C48.7983 33.6736 48.1931 36.7164 47.0172 39.5553C45.8412 42.3942 44.1177 44.9737 41.9449 47.1465C39.772 49.3193 37.1925 51.0429 34.3536 52.2188C31.5147 53.3947 28.472 54 25.3992 54C22.3263 54 19.2836 53.3947 16.4447 52.2188C13.6058 51.0429 11.0263 49.3193 8.85345 47.1465C6.68064 44.9737 4.95707 42.3942 3.78115 39.5553C2.60524 36.7164 2 33.6736 2 30.6008C2 24.395 4.46526 18.4433 8.85345 14.0551C13.2416 9.66692 19.1933 7.20166 25.3992 7.20166C31.605 7.20166 37.5567 9.66692 41.9449 14.0551C46.333 18.4433 48.7983 24.395 48.7983 30.6008Z" stroke="url(#paint0_linear_24_62)" stroke-width="3"/>
<path d="M25.3981 30.6003V20.2007" stroke="url(#paint1_linear_24_62)" stroke-width="3" stroke-linecap="round" stroke-linejoin="round"/>
<path d="M20.1987 2H30.5984" stroke="url(#paint2_linear_24_62)" stroke-width="3" stroke-linecap="round"/>
<defs>
<linearGradient id="paint0_linear_24_62" x1="25.3992" y1="7.20166" x2="25.3992" y2="54" gradientUnits="userSpaceOnUse">
<stop stop-color="#34C2AA"/>
<stop offset="1" stop-color="#117A68"/>
</linearGradient>
<linearGradient id="paint1_linear_24_62" x1="25.8981" y1="20.2007" x2="25.8981" y2="30.6003" gradientUnits="userSpaceOnUse">
<stop stop-color="#34C2AA"/>
<stop offset="1" stop-color="#117A68"/>
</linearGradient>
<linearGradient id="paint2_linear_24_62" x1="25.3985" y1="2" x2="25.3985" y2="3" gradientUnits="userSpaceOnUse">
<stop stop-color="#34C2AA"/>
<stop offset="1" stop-color="#117A68"/>
</linearGradient>
</defs>
</svg>
