<svg width="100" height="100" viewBox="0 0 100 100" fill="none" xmlns="http://www.w3.org/2000/svg">
<circle cx="50" cy="50" r="50" fill="#34C2AA" fill-opacity="0.18"/>
<path fill-rule="evenodd" clip-rule="evenodd" d="M26.7507 41.7529C26.75 42.1074 26.75 42.4755 26.75 42.8577V57.142C26.75 62.2997 26.75 64.8786 28.3523 66.4809C29.9546 68.0832 32.5335 68.0832 37.6912 68.0832H62.3088C67.4665 68.0832 70.0454 68.0832 71.6477 66.4809C73.25 64.8786 73.25 62.2997 73.25 57.142V42.8577C73.25 42.4755 73.25 42.1074 73.2493 41.7529L51.7712 53.6852C50.6697 54.2972 49.3303 54.2972 48.2288 53.6852L26.7507 41.7529ZM26.8494 37.8453C27.117 37.8597 27.3856 37.9336 27.6356 38.0725L50 50.4971L72.3644 38.0725C72.6144 37.9336 72.883 37.8597 73.1506 37.8453C72.9989 35.8112 72.6157 34.4868 71.6477 33.5188C70.0454 31.9165 67.4665 31.9165 62.3088 31.9165H37.6912C32.5335 31.9165 29.9546 31.9165 28.3523 33.5188C27.3843 34.4868 27.0011 35.8112 26.8494 37.8453Z" fill="#34C2AA"/>
</svg>
