<svg width="100" height="100" viewBox="0 0 100 100" fill="none" xmlns="http://www.w3.org/2000/svg">
<circle cx="50" cy="50" r="50" fill="#34C2AA" fill-opacity="0.18"/>
<path fill-rule="evenodd" clip-rule="evenodd" d="M51.0283 70.1602C54.8593 68.1731 68.0834 60.3754 68.0834 47.4166C68.0834 37.4294 59.9872 29.3333 50.0001 29.3333C40.0129 29.3333 31.9167 37.4294 31.9167 47.4166C31.9167 60.3754 45.1409 68.1731 48.9718 70.1602C49.625 70.499 50.3751 70.499 51.0283 70.1602ZM50 55.1667C54.2802 55.1667 57.75 51.6969 57.75 47.4167C57.75 43.1365 54.2802 39.6667 50 39.6667C45.7198 39.6667 42.25 43.1365 42.25 47.4167C42.25 51.6969 45.7198 55.1667 50 55.1667Z" fill="#34C2AA"/>
</svg>
