<svg width="100" height="100" viewBox="0 0 100 100" fill="none" xmlns="http://www.w3.org/2000/svg">
<circle cx="50" cy="50" r="50" fill="#34C2AA" fill-opacity="0.18"/>
<path d="M36.2557 27.5777L37.84 25.9934C38.8488 24.9846 40.4845 24.9846 41.4934 25.9934L48.1733 32.6734C49.1822 33.6822 49.1822 35.3179 48.1733 36.3268L43.5429 40.9572C42.7708 41.7293 42.5794 42.9088 43.0677 43.8855C45.8907 49.5314 50.4687 54.1094 56.1146 56.9324C57.0912 57.4207 58.2708 57.2293 59.0429 56.4572L63.6733 51.8268C64.6822 50.8179 66.3178 50.8179 67.3267 51.8268L74.0066 58.5067C75.0155 59.5156 75.0155 61.1513 74.0066 62.1601L72.4224 63.7444C66.968 69.1987 58.3331 69.8124 52.1622 65.1842L49.0405 62.8429C44.5364 59.4649 40.5352 55.4637 37.1571 50.9596L34.8158 47.8379C30.1877 41.667 30.8014 33.0321 36.2557 27.5777Z" fill="#34C2AA"/>
</svg>
