<svg width="30" height="31" viewBox="0 0 30 31" fill="none" xmlns="http://www.w3.org/2000/svg">
<circle cx="15" cy="15.0293" r="15" fill="#34C2AA"/>
<g clip-path="url(#clip0_45_722)">
<path fill-rule="evenodd" clip-rule="evenodd" d="M22.1988 15.0291C22.1988 19.0056 18.9753 22.2291 14.9988 22.2291C11.0224 22.2291 7.79883 19.0056 7.79883 15.0291C7.79883 11.0527 11.0224 7.8291 14.9988 7.8291C18.9753 7.8291 22.1988 11.0527 22.1988 15.0291ZM15.2568 13.1445C14.5565 13.4357 13.1569 14.0386 11.058 14.9531C10.7171 15.0886 10.5386 15.2212 10.5223 15.3509C10.4949 15.57 10.7693 15.6563 11.1429 15.7738C11.1937 15.7898 11.2464 15.8063 11.3004 15.8239C11.668 15.9434 12.1625 16.0832 12.4196 16.0887C12.6528 16.0938 12.9131 15.9976 13.2004 15.8003C15.1615 14.4765 16.1739 13.8074 16.2374 13.793C16.2823 13.7828 16.3444 13.77 16.3865 13.8074C16.4286 13.8448 16.4244 13.9157 16.42 13.9347C16.3928 14.0506 15.3157 15.052 14.7583 15.5702C14.5845 15.7317 14.4613 15.8463 14.4361 15.8725C14.3796 15.9311 14.3221 15.9866 14.2668 16.0399C13.9253 16.3691 13.6692 16.616 14.281 17.0192C14.575 17.2129 14.8103 17.3731 15.045 17.533C15.3013 17.7076 15.557 17.8817 15.8878 18.0985C15.9721 18.1537 16.0526 18.2111 16.131 18.267C16.4293 18.4797 16.6973 18.6708 17.0284 18.6403C17.2208 18.6226 17.4195 18.4417 17.5204 17.9021C17.759 16.627 18.2278 13.8642 18.3362 12.7257C18.3457 12.6259 18.3337 12.4983 18.3241 12.4422C18.3145 12.3862 18.2945 12.3064 18.2216 12.2473C18.1354 12.1773 18.0022 12.1625 17.9426 12.1636C17.6718 12.1683 17.2564 12.3128 15.2568 13.1445Z" fill="white"/>
</g>
<defs>
<clipPath id="clip0_45_722">
<rect width="14.4" height="14.4" fill="white" transform="translate(7.79883 7.8291)"/>
</clipPath>
</defs>
</svg>
