<svg width="137" height="48" viewBox="0 0 137 48" fill="none" xmlns="http://www.w3.org/2000/svg">
<g clip-path="url(#clip0_98_169)">
<path d="M63.3233 30.4993V25.0829L60.6616 16.842H63.2768L64.7414 21.6424L66.1013 16.842H68.6352L66.0083 25.0829V30.4993H63.3233Z" fill="#11394C"/>
<path d="M73.0287 30.6971C72.1105 30.6971 71.3782 30.4995 70.8319 30.1159C70.2972 29.7323 69.9137 29.1744 69.6812 28.4654C69.4488 27.7564 69.3325 26.9195 69.3325 25.978V21.4101C69.3325 20.4337 69.4488 19.5853 69.6812 18.8879C69.9137 18.1788 70.3321 17.6325 70.9249 17.249C71.5177 16.8654 72.3197 16.6794 73.3309 16.6794C74.3421 16.6794 75.086 16.8422 75.6439 17.1676C76.2135 17.4931 76.6203 17.958 76.8644 18.5508C77.1085 19.1436 77.2363 19.8526 77.2363 20.6778V21.4682H74.5281V20.5035C74.5281 20.1432 74.5049 19.8293 74.4584 19.5504C74.4119 19.2714 74.3073 19.0622 74.1445 18.8995C73.9818 18.7368 73.7145 18.667 73.3658 18.667C73.0171 18.667 72.7265 18.76 72.5522 18.9576C72.3778 19.1552 72.2732 19.3993 72.2267 19.6899C72.1802 19.9921 72.157 20.3059 72.157 20.643V26.6987C72.157 27.0822 72.1918 27.4193 72.2616 27.7215C72.3313 28.0237 72.4592 28.2562 72.6451 28.4305C72.8311 28.5933 73.0984 28.6862 73.4471 28.6862C73.7958 28.6862 74.0632 28.5933 74.2608 28.4189C74.4467 28.2329 74.5862 27.9889 74.656 27.6866C74.7257 27.3728 74.7606 27.0241 74.7606 26.6289V25.176H73.4239V23.4907H77.2712V30.4995H75.4463L75.272 29.2674C75.0976 29.6858 74.8187 30.0229 74.4584 30.2903C74.098 30.5576 73.6099 30.6971 73.0055 30.6971H73.0287Z" fill="#11394C"/>
<path d="M80.2002 30.4994V18.9227H78.0964V16.8538H85.0704V18.9227H83.0014V30.4994H80.2002Z" fill="#11394C"/>
<path d="M88.0809 30.4993V25.0829L85.4192 16.842H88.0344L89.4989 21.6424L90.8589 16.842H93.3811L90.7543 25.0829V30.4993H88.0693H88.0809Z" fill="#11394C"/>
<path d="M94.5549 30.4993V16.842H98.007C98.5998 16.842 99.1577 16.8885 99.6575 16.9931C100.169 17.0978 100.611 17.2721 100.994 17.5278C101.378 17.7835 101.68 18.1438 101.889 18.5972C102.098 19.0505 102.203 19.6432 102.203 20.3755C102.203 20.9218 102.122 21.3984 101.971 21.7819C101.819 22.1655 101.587 22.4793 101.296 22.7002C101.006 22.921 100.646 23.0721 100.215 23.1535C100.738 23.2348 101.192 23.4092 101.552 23.6881C101.912 23.9671 102.18 24.339 102.366 24.804C102.54 25.2689 102.633 25.8268 102.633 26.4777C102.633 27.1635 102.552 27.7563 102.377 28.2677C102.203 28.7675 101.947 29.1859 101.61 29.5114C101.273 29.8368 100.855 30.0809 100.367 30.2436C99.8668 30.4064 99.2972 30.4877 98.6463 30.4877H94.5666L94.5549 30.4993ZM97.3329 22.3631H98.0187C98.5068 22.3631 98.8672 22.2933 99.1112 22.1539C99.3553 22.0144 99.5297 21.8052 99.6227 21.5146C99.7156 21.224 99.7621 20.8753 99.7621 20.4569C99.7621 20.0384 99.6924 19.7014 99.5529 19.4573C99.4134 19.2016 99.2042 19.0272 98.9136 18.911C98.6231 18.7947 98.2628 18.7366 97.8211 18.7366H97.3213V22.3631H97.3329ZM97.3329 28.5466H98.1116C98.809 28.5466 99.2856 28.3723 99.5529 28.0236C99.8203 27.6749 99.9481 27.1519 99.9481 26.4545C99.9481 25.9198 99.89 25.4897 99.7621 25.1643C99.6343 24.8388 99.4367 24.6064 99.1694 24.4553C98.8904 24.3042 98.5301 24.2228 98.0652 24.2228H97.3445V28.535L97.3329 28.5466Z" fill="#11394C"/>
<path d="M103.516 30.4993L106.167 16.842H109.247L111.874 30.4993H109.293L108.805 27.5006H106.643L106.12 30.4993H103.505H103.516ZM106.899 25.7919H108.538L107.712 20.2825L106.899 25.7919Z" fill="#11394C"/>
<path d="M113.268 30.4993V16.842H116.802C117.72 16.842 118.51 16.9467 119.173 17.1559C119.835 17.3651 120.335 17.737 120.696 18.2601C121.044 18.7831 121.23 19.5154 121.23 20.4452C121.23 21.0032 121.184 21.503 121.091 21.933C120.998 22.3631 120.823 22.7466 120.591 23.0605C120.358 23.3743 120.01 23.6416 119.568 23.8276L121.451 30.4877H118.603L117.034 24.3042H116.058V30.4877H113.28L113.268 30.4993ZM116.046 22.6653H116.86C117.313 22.6653 117.662 22.5955 117.918 22.4444C118.173 22.305 118.359 22.0725 118.464 21.7819C118.569 21.4797 118.627 21.1194 118.627 20.6777C118.627 20.0501 118.51 19.5735 118.278 19.2364C118.045 18.911 117.615 18.7366 116.988 18.7366H116.046V22.6653Z" fill="#11394C"/>
<path d="M123.09 30.4993V16.842H125.868V28.6048H129.064V30.4877H123.078L123.09 30.4993Z" fill="#11394C"/>
<path d="M130.738 30.4993V25.0829L128.076 16.842H130.692L132.156 21.6424L133.516 16.842H136.038L133.411 25.0829V30.4993H130.727H130.738Z" fill="#11394C"/>
<path d="M60.7314 44.6215L62.7539 35.1254H64.0324L66.0665 44.6215H64.8112L64.3811 42.2272H62.4401L61.9868 44.6215H60.7431H60.7314ZM61.7543 33.7073V32.4055H63.0212V33.7073H61.7543ZM62.6144 41.2857H64.1952L63.3932 37.0083L62.6028 41.2857H62.6144ZM63.7767 33.7073V32.4055H65.0437V33.7073H63.7767Z" fill="#11394C"/>
<path d="M67.5774 44.6216V36.1017H65.9734V35.1138H70.46V36.1017H68.9024V44.6216H67.5774Z" fill="#11394C"/>
<path d="M71.448 44.6216V35.1254H72.7498V44.6216H71.448Z" fill="#11394C"/>
<path d="M75.737 44.6216V41.2625L73.6797 35.1138H74.9117L76.3647 39.7049L77.7943 35.1138H79.038L76.9923 41.2625V44.6216H75.7254H75.737ZM76.0392 34.5558L76.725 32.2312H77.9803L76.6669 34.5558H76.0392Z" fill="#11394C"/>
<path d="M78.9451 44.6216L80.9675 35.1254H82.2461L84.2801 44.6216H83.0248L82.5948 42.2272H80.6537L80.2004 44.6216H78.9567H78.9451ZM80.8164 41.2741H82.3972L81.5952 36.9967L80.8048 41.2741H80.8164Z" fill="#11394C"/>
<path d="M87.5927 44.7261C86.9185 44.7261 86.3955 44.5866 86.0235 44.3077C85.6516 44.0287 85.3959 43.6451 85.2448 43.1686C85.0937 42.692 85.0239 42.1574 85.0239 41.5762V38.2171C85.0239 37.5778 85.0937 37.0199 85.2448 36.5433C85.3842 36.0668 85.6516 35.6948 86.0235 35.4391C86.3955 35.1834 86.9185 35.0439 87.5927 35.0439C88.1854 35.0439 88.662 35.1486 89.0107 35.3694C89.3594 35.5902 89.6035 35.9041 89.7662 36.3109C89.9173 36.7177 89.9987 37.2059 89.9987 37.7754V38.5309H88.7434V37.8568C88.7434 37.5081 88.7317 37.1942 88.6969 36.9269C88.662 36.6596 88.569 36.4504 88.4063 36.2993C88.2552 36.1482 87.9878 36.0784 87.6159 36.0784C87.244 36.0784 86.965 36.1598 86.7907 36.3225C86.6163 36.4852 86.5117 36.7061 86.4536 36.9966C86.4071 37.2872 86.3722 37.6359 86.3722 38.0195V41.7854C86.3722 42.262 86.4071 42.6339 86.4885 42.9129C86.5698 43.1918 86.6977 43.3894 86.872 43.5057C87.0464 43.6219 87.2905 43.68 87.6043 43.68C87.9646 43.68 88.2203 43.5986 88.383 43.4359C88.5341 43.2732 88.6388 43.0524 88.6736 42.7734C88.7085 42.4944 88.7317 42.169 88.7317 41.7854V41.0764H89.987V41.7854C89.987 42.3666 89.9173 42.878 89.7778 43.3197C89.6383 43.7614 89.3943 44.1101 89.0456 44.3542C88.6969 44.5982 88.2203 44.7261 87.5927 44.7261ZM87.6508 47.3762C87.5229 47.3762 87.3951 47.3762 87.2672 47.3413C87.1394 47.3065 86.9999 47.2948 86.872 47.26V46.6323C86.9766 46.6672 87.0696 46.6788 87.1742 46.7021C87.2788 46.7021 87.3718 46.7137 87.4648 46.7137C87.6624 46.7137 87.8368 46.6788 87.9762 46.6091C88.1157 46.5393 88.1854 46.4231 88.1854 46.2604C88.1854 46.1209 88.1506 46.0047 88.0692 45.9233C87.9878 45.8419 87.8832 45.7722 87.7321 45.7257C87.581 45.6792 87.4067 45.6327 87.1975 45.5978V44.6215H87.8251V45.284C88.2203 45.284 88.5341 45.377 88.7666 45.5514C89.0107 45.7373 89.1269 45.9814 89.1269 46.2952C89.1269 46.5393 89.0688 46.7485 88.9293 46.9113C88.8015 47.074 88.6271 47.1902 88.4063 47.2716C88.1854 47.353 87.9297 47.3878 87.6624 47.3878L87.6508 47.3762Z" fill="#11394C"/>
<path d="M91.2542 44.6216V35.1254H92.5792V43.6801H95.0085V44.6332H91.2542V44.6216Z" fill="#11394C"/>
<path d="M95.3918 44.6216L97.4143 35.1254H98.6928L100.727 44.6216H99.4716L99.0415 42.2272H97.1005L96.6472 44.6216H95.4035H95.3918ZM97.2632 41.2741H98.8439L98.0419 36.9967L97.2516 41.2741H97.2632Z" fill="#11394C"/>
<path d="M101.68 44.6216V35.1254H102.587L105.283 41.4368V35.1254H106.388V44.6216H105.539L102.808 38.1358V44.6216H101.68Z" fill="#11394C"/>
<path d="M107.875 44.6216V35.1254H109.944C110.653 35.1254 111.199 35.23 111.618 35.4508C112.025 35.6717 112.315 35.9855 112.501 36.4155C112.687 36.8456 112.769 37.3803 112.769 38.0196V41.5181C112.769 42.1923 112.676 42.7618 112.501 43.2151C112.327 43.6801 112.036 44.0288 111.641 44.2612C111.246 44.4937 110.723 44.6216 110.049 44.6216H107.875ZM109.2 43.6684H109.956C110.444 43.6684 110.781 43.5755 110.99 43.3895C111.199 43.2035 111.316 42.9246 111.362 42.5642C111.409 42.2039 111.432 41.7739 111.432 41.2624V38.1823C111.432 37.6941 111.397 37.2873 111.339 36.9851C111.281 36.6829 111.141 36.462 110.932 36.3109C110.723 36.1598 110.386 36.1017 109.933 36.1017H109.212V43.6684H109.2Z" fill="#11394C"/>
<path d="M115.43 44.6216V41.2625L113.373 35.1138H114.605L116.058 39.7049L117.488 35.1138H118.731L116.686 41.2625V44.6216H115.419H115.43Z" fill="#11394C"/>
<path d="M119.615 44.6216V35.1254H121.521C122.149 35.1254 122.683 35.2067 123.09 35.3811C123.509 35.5554 123.811 35.8228 124.008 36.1947C124.206 36.5666 124.311 37.0548 124.311 37.6592C124.311 38.0312 124.276 38.3566 124.194 38.6588C124.113 38.961 123.985 39.2167 123.822 39.426C123.648 39.6352 123.427 39.7863 123.148 39.8793L124.497 44.6448H123.218L121.974 40.1931H120.94V44.6448H119.615V44.6216ZM120.94 39.2167H121.44C121.812 39.2167 122.114 39.1703 122.358 39.0773C122.59 38.9843 122.765 38.8216 122.869 38.6007C122.974 38.3682 123.032 38.0544 123.032 37.6476C123.032 37.0897 122.927 36.6945 122.73 36.4504C122.532 36.2063 122.125 36.0785 121.521 36.0785H120.94V39.2167Z" fill="#11394C"/>
<path d="M126.972 44.6216V41.2625L124.915 35.1138H126.147L127.6 39.7049L129.029 35.1138H130.273L128.227 41.2625V44.6216H126.96H126.972Z" fill="#11394C"/>
<path d="M133.365 44.7262C132.819 44.7262 132.366 44.6099 132.005 44.3775C131.645 44.145 131.366 43.8196 131.18 43.4011C130.994 42.9827 130.878 42.5061 130.854 41.9598L132.028 41.646C132.052 41.9831 132.11 42.3085 132.191 42.6224C132.273 42.9362 132.412 43.1919 132.598 43.3895C132.784 43.5871 133.051 43.6917 133.388 43.6917C133.725 43.6917 133.993 43.5987 134.167 43.4011C134.341 43.2152 134.434 42.9362 134.434 42.5759C134.434 42.1458 134.341 41.7971 134.144 41.5414C133.946 41.2741 133.702 41.0184 133.412 40.751L131.819 39.3446C131.505 39.0657 131.273 38.7751 131.133 38.4496C130.994 38.1242 130.913 37.729 130.913 37.2524C130.913 36.555 131.11 36.0204 131.505 35.6368C131.901 35.2532 132.447 35.0673 133.133 35.0673C133.505 35.0673 133.842 35.1138 134.121 35.2184C134.411 35.3113 134.644 35.4625 134.841 35.6717C135.039 35.8809 135.19 36.1366 135.295 36.4388C135.399 36.741 135.481 37.1129 135.527 37.5198L134.4 37.822C134.376 37.5081 134.33 37.2176 134.26 36.9618C134.19 36.6945 134.063 36.4853 133.888 36.3342C133.714 36.1831 133.458 36.0901 133.133 36.0901C132.807 36.0901 132.551 36.1831 132.366 36.3574C132.18 36.5318 132.087 36.7991 132.087 37.1362C132.087 37.4268 132.133 37.6592 132.238 37.8568C132.331 38.0428 132.493 38.2404 132.714 38.4264L134.318 39.8328C134.679 40.1466 134.992 40.5186 135.271 40.9486C135.55 41.3787 135.678 41.9017 135.678 42.4945C135.678 42.9594 135.585 43.3663 135.388 43.7033C135.19 44.0404 134.923 44.3077 134.586 44.4821C134.248 44.6681 133.853 44.7494 133.412 44.7494L133.365 44.7262ZM133.319 47.3763C133.191 47.3763 133.063 47.3763 132.935 47.3414C132.807 47.3065 132.668 47.2949 132.54 47.26V46.6324C132.644 46.6673 132.737 46.6789 132.842 46.7021C132.947 46.7021 133.04 46.7137 133.133 46.7137C133.33 46.7137 133.505 46.6789 133.644 46.6091C133.784 46.5394 133.853 46.4232 133.853 46.2604C133.853 46.121 133.818 46.0047 133.737 45.9234C133.656 45.842 133.539 45.7723 133.4 45.7258C133.26 45.6793 133.075 45.6328 132.865 45.5979V44.6216H133.493V45.2841C133.888 45.2841 134.202 45.3771 134.434 45.5514C134.679 45.7374 134.795 45.9815 134.795 46.2953C134.795 46.5394 134.737 46.7486 134.597 46.9113C134.469 47.0741 134.295 47.1903 134.074 47.2717C133.853 47.353 133.598 47.3879 133.33 47.3879L133.319 47.3763Z" fill="#11394C"/>
<path d="M44.2845 15.1221L44.087 15.4475C42.6457 17.8419 40.9487 20.1201 39.3679 22.4215C39.2982 22.5261 39.2284 22.6307 39.1587 22.7353C37.5314 25.0948 35.9158 27.466 34.3234 29.8371C32.8008 32.1385 32.7775 34.8002 32.7427 37.4736C32.6962 40.205 32.8008 42.9481 32.4172 45.6563C32.4056 45.7493 32.394 45.8539 32.3475 45.9353C30.9062 46.5164 29.3719 46.9697 27.7447 47.2952C27.7331 47.272 27.7214 47.2487 27.7214 47.2255C27.6749 47.0627 27.6633 46.8884 27.6633 46.714C27.5936 41.7277 27.6633 36.7297 27.6633 31.7433C27.6866 29.0002 27.582 25.9898 28.7094 23.4327L28.8489 23.1421C29.9996 21.3289 31.7315 20.0736 33.4982 18.9229C33.7655 18.7485 34.0329 18.5742 34.3118 18.3998C34.5675 18.3998 35.1603 17.8535 35.3812 17.7141C35.7415 17.4816 36.1018 17.2608 36.4505 17.0283C37.1944 16.5517 37.9383 16.0636 38.6821 15.587C40.1002 14.6804 41.5182 13.7854 42.9479 12.902C43.0176 12.8555 43.0874 12.8207 43.1803 12.8207C43.2617 12.8207 43.3431 12.8904 43.4128 12.9485C43.715 13.2275 44.1102 13.704 44.2962 14.1922C44.4124 14.5177 44.4357 14.8547 44.2962 15.1337L44.2845 15.1221Z" fill="#11394C"/>
<path d="M35.2302 4.27762C35.2069 4.53333 35.0674 4.81229 34.8582 5.1145C32.7428 8.26439 30.6274 11.4259 28.5119 14.5758C28.0005 15.3546 27.4775 16.1101 26.9544 16.8888C26.9544 16.8888 26.9428 16.9237 26.9312 16.9353C26.5127 17.563 25.7107 18.3766 25.5248 19.1089C25.455 19.3995 25.5248 19.8063 25.5248 20.1085V47.6439C24.4554 47.7602 23.3512 47.8299 22.2238 47.8299C21.0963 47.8299 19.9921 47.7602 18.9228 47.6439V20.1085C18.9228 19.8063 18.9925 19.3995 18.9228 19.1089C18.7484 18.3766 17.9348 17.5514 17.5164 16.9353C17.5047 16.9237 17.4931 16.9005 17.4931 16.8888C16.9817 16.1101 16.4586 15.3546 15.9356 14.5758C13.8202 11.4259 11.6931 8.26439 9.58931 5.1145C9.38009 4.81229 9.24061 4.52171 9.21736 4.27762C9.19412 3.95217 9.36846 3.67321 9.84502 3.39426C13.425 1.24396 17.7139 0.000270977 21.9448 0.000270977H22.2121C26.5127 -0.046222 30.8947 1.20909 34.5909 3.38263C35.0674 3.66159 35.2418 3.95217 35.2185 4.266L35.2302 4.27762Z" fill="#11394C"/>
<path d="M16.7259 46.7139C16.7259 46.8883 16.7259 47.0626 16.6678 47.2254C16.6678 47.2486 16.6562 47.2719 16.6446 47.2951C15.029 46.9697 13.4831 46.5163 12.0418 45.9352C12.0069 45.8538 11.9837 45.7492 11.972 45.6562C11.5885 42.9364 11.6815 40.2049 11.6466 37.4735C11.6001 34.8001 11.5885 32.15 10.0658 29.837C8.47345 27.4659 6.8462 25.0947 5.23057 22.7352C5.16083 22.6306 5.09109 22.526 5.02135 22.4214C3.44059 20.12 1.7436 17.8418 0.302314 15.4474L0.104719 15.122C-0.0580066 14.843 -0.0231369 14.506 0.104719 14.1805C0.279067 13.6923 0.674257 13.2158 0.988085 12.9368C1.05782 12.8671 1.12756 12.8206 1.22055 12.809C1.30191 12.809 1.38327 12.8555 1.44139 12.8903C2.87105 13.7737 4.30071 14.6687 5.70712 15.5753C6.45101 16.0518 7.19489 16.54 7.93878 17.0166C8.28748 17.249 8.6478 17.4699 9.00812 17.7023C9.24058 17.8418 9.82175 18.3881 10.0775 18.3881C10.3448 18.5625 10.6121 18.7368 10.8911 18.9112C12.6694 20.0735 14.4013 21.3288 15.5404 23.1304L15.6799 23.421C16.8073 25.9781 16.7027 28.9885 16.7143 31.7316C16.7143 36.718 16.7957 41.716 16.7143 46.7023L16.7259 46.7139Z" fill="#11394C"/>
<path d="M52.0837 13.913V47.8296" stroke="#231F20" stroke-width="2.32465" stroke-miterlimit="10"/>
</g>
<defs>
<clipPath id="clip0_98_169">
<rect width="136.05" height="47.8296" fill="white"/>
</clipPath>
</defs>
</svg>
