<svg width="30" height="31" viewBox="0 0 30 31" fill="none" xmlns="http://www.w3.org/2000/svg">
<circle cx="15" cy="15.0293" r="15" fill="#34C2AA"/>
<g clip-path="url(#clip0_45_719)">
<path d="M14.9988 9.12566C16.9226 9.12566 17.1504 9.1341 17.907 9.16785C18.6101 9.19879 18.9898 9.31691 19.2429 9.41535C19.5776 9.54473 19.8195 9.70223 20.0698 9.95254C20.3229 10.2057 20.4776 10.4447 20.607 10.7794C20.7054 11.0325 20.8235 11.415 20.8545 12.1154C20.8882 12.8747 20.8966 13.1025 20.8966 15.0235C20.8966 16.9472 20.8882 17.175 20.8545 17.9316C20.8235 18.6347 20.7054 19.0144 20.607 19.2675C20.4776 19.6022 20.3201 19.8441 20.0698 20.0944C19.8166 20.3475 19.5776 20.5022 19.2429 20.6316C18.9898 20.73 18.6073 20.8482 17.907 20.8791C17.1476 20.9129 16.9198 20.9213 14.9988 20.9213C13.0751 20.9213 12.8473 20.9129 12.0907 20.8791C11.3876 20.8482 11.0079 20.73 10.7548 20.6316C10.4201 20.5022 10.1782 20.3447 9.92789 20.0944C9.67477 19.8413 9.52008 19.6022 9.3907 19.2675C9.29227 19.0144 9.17414 18.6319 9.1432 17.9316C9.10945 17.1722 9.10102 16.9444 9.10102 15.0235C9.10102 13.0997 9.10945 12.8719 9.1432 12.1154C9.17414 11.4122 9.29227 11.0325 9.3907 10.7794C9.52008 10.4447 9.67758 10.2029 9.92789 9.95254C10.181 9.69941 10.4201 9.54473 10.7548 9.41535C11.0079 9.31691 11.3904 9.19879 12.0907 9.16785C12.8473 9.1341 13.0751 9.12566 14.9988 9.12566ZM14.9988 7.8291C13.0441 7.8291 12.7995 7.83754 12.0316 7.87129C11.2666 7.90504 10.7407 8.02879 10.2851 8.20598C9.80977 8.3916 9.40758 8.63629 9.0082 9.03848C8.60602 9.43785 8.36133 9.84004 8.1757 10.3125C7.99852 10.771 7.87477 11.2941 7.84102 12.0591C7.80727 12.8297 7.79883 13.0744 7.79883 15.0291C7.79883 16.9838 7.80727 17.2285 7.84102 17.9963C7.87477 18.7613 7.99852 19.2872 8.1757 19.7429C8.36133 20.2182 8.60602 20.6204 9.0082 21.0197C9.40758 21.4191 9.80977 21.6666 10.2823 21.8494C10.7407 22.0266 11.2638 22.1504 12.0288 22.1841C12.7966 22.2179 13.0413 22.2263 14.996 22.2263C16.9507 22.2263 17.1954 22.2179 17.9632 22.1841C18.7282 22.1504 19.2541 22.0266 19.7098 21.8494C20.1823 21.6666 20.5845 21.4191 20.9838 21.0197C21.3832 20.6204 21.6307 20.2182 21.8135 19.7457C21.9907 19.2872 22.1145 18.7641 22.1482 17.9991C22.182 17.2313 22.1904 16.9866 22.1904 15.0319C22.1904 13.0772 22.182 12.8325 22.1482 12.0647C22.1145 11.2997 21.9907 10.7738 21.8135 10.3182C21.6363 9.84004 21.3916 9.43785 20.9895 9.03848C20.5901 8.6391 20.1879 8.3916 19.7154 8.20879C19.257 8.0316 18.7338 7.90785 17.9688 7.8741C17.1982 7.83754 16.9535 7.8291 14.9988 7.8291Z" fill="white"/>
<path d="M14.9987 11.3307C12.9569 11.3307 11.3003 12.9873 11.3003 15.0291C11.3003 17.071 12.9569 18.7276 14.9987 18.7276C17.0406 18.7276 18.6972 17.071 18.6972 15.0291C18.6972 12.9873 17.0406 11.3307 14.9987 11.3307ZM14.9987 17.4282C13.674 17.4282 12.5997 16.3538 12.5997 15.0291C12.5997 13.7044 13.674 12.6301 14.9987 12.6301C16.3234 12.6301 17.3978 13.7044 17.3978 15.0291C17.3978 16.3538 16.3234 17.4282 14.9987 17.4282Z" fill="white"/>
<path d="M19.7069 11.1844C19.7069 11.6625 19.3187 12.0478 18.8434 12.0478C18.3653 12.0478 17.98 11.6597 17.98 11.1844C17.98 10.7062 18.3681 10.3209 18.8434 10.3209C19.3187 10.3209 19.7069 10.709 19.7069 11.1844Z" fill="white"/>
</g>
<defs>
<clipPath id="clip0_45_719">
<rect width="14.4" height="14.4" fill="white" transform="translate(7.79883 7.8291)"/>
</clipPath>
</defs>
</svg>
