<svg width="30" height="31" viewBox="0 0 30 31" fill="none" xmlns="http://www.w3.org/2000/svg">
<circle cx="15" cy="15.0293" r="15" fill="#34C2AA"/>
<path d="M7.79883 22.2291L8.81103 18.5313C8.18643 17.4489 7.85823 16.2219 7.85883 14.9637C7.86063 11.0301 11.0616 7.8291 14.9946 7.8291C16.9032 7.8297 18.6948 8.5731 20.0424 9.9219C21.3894 11.2707 22.131 13.0635 22.1304 14.9703C22.1286 18.9045 18.9276 22.1055 14.9946 22.1055C13.8006 22.1049 12.624 21.8055 11.5818 21.2367L7.79883 22.2291ZM11.757 19.9449C12.7626 20.5419 13.7226 20.8995 14.9922 20.9001C18.261 20.9001 20.9238 18.2397 20.9256 14.9691C20.9268 11.6919 18.2766 9.0351 14.997 9.0339C11.7258 9.0339 9.06483 11.6943 9.06363 14.9643C9.06303 16.2993 9.45423 17.2989 10.1112 18.3447L9.51183 20.5335L11.757 19.9449ZM18.5892 16.6665C18.5448 16.5921 18.426 16.5477 18.2472 16.4583C18.069 16.3689 17.1924 15.9375 17.0286 15.8781C16.8654 15.8187 16.7466 15.7887 16.6272 15.9675C16.5084 16.1457 16.1664 16.5477 16.0626 16.6665C15.9588 16.7853 15.8544 16.8003 15.6762 16.7109C15.498 16.6215 14.9232 16.4337 14.2422 15.8259C13.7124 15.3531 13.3542 14.7693 13.2504 14.5905C13.1466 14.4123 13.2396 14.3157 13.3284 14.2269C13.4088 14.1471 13.5066 14.0187 13.596 13.9143C13.6866 13.8111 13.716 13.7367 13.776 13.6173C13.8354 13.4985 13.806 13.3941 13.761 13.3047C13.716 13.2159 13.3596 12.3381 13.2114 11.9811C13.0662 11.6337 12.9192 11.6805 12.81 11.6751L12.468 11.6691C12.3492 11.6691 12.156 11.7135 11.9928 11.8923C11.8296 12.0711 11.3688 12.5019 11.3688 13.3797C11.3688 14.2575 12.0078 15.1053 12.0966 15.2241C12.186 15.3429 13.3536 17.1441 15.1422 17.9163C15.5676 18.0999 15.9 18.2097 16.1586 18.2919C16.5858 18.4275 16.9746 18.4083 17.2818 18.3627C17.6244 18.3117 18.3366 17.9313 18.4854 17.5149C18.6342 17.0979 18.6342 16.7409 18.5892 16.6665Z" fill="white"/>
</svg>
