<svg width="30" height="31" viewBox="0 0 30 31" fill="none" xmlns="http://www.w3.org/2000/svg">
<circle cx="15" cy="15.0293" r="15" fill="#34C2AA"/>
<g clip-path="url(#clip0_45_725)">
<path d="M18.0433 7.8291H15.6164V17.6378C15.6164 18.8065 14.6831 19.7665 13.5215 19.7665C12.36 19.7665 11.4266 18.8065 11.4266 17.6378C11.4266 16.49 12.3392 15.5508 13.4593 15.5091V13.0465C10.991 13.0882 8.99976 15.1126 8.99976 17.6378C8.99976 20.1839 11.0325 22.2291 13.5423 22.2291C16.052 22.2291 18.0847 20.163 18.0847 17.6378V12.6082C18.9974 13.2761 20.1174 13.6726 21.2998 13.6935V11.2308C19.4745 11.1682 18.0433 9.66562 18.0433 7.8291Z" fill="white"/>
</g>
<defs>
<clipPath id="clip0_45_725">
<rect width="14.4" height="14.4" fill="white" transform="translate(7.7998 7.8291)"/>
</clipPath>
</defs>
</svg>
