<svg width="60" height="56" viewBox="0 0 60 56" fill="none" xmlns="http://www.w3.org/2000/svg">
<path d="M14.662 25.8333C16.9905 25.8333 19.0907 24.5449 20.5293 22.7133C22.7693 19.8498 25.585 17.4878 28.7945 15.78C30.8831 14.6707 32.6945 13.0182 33.5698 10.8256C34.1844 9.28935 34.5002 7.64993 34.5 5.99533V4.16667C34.5 3.59203 34.7283 3.04093 35.1346 2.6346C35.5409 2.22827 36.092 2 36.6667 2C38.3906 2 40.0439 2.68482 41.2629 3.90381C42.4819 5.12279 43.1667 6.77609 43.1667 8.5C43.1667 11.828 42.4156 14.9798 41.078 17.7964C40.3096 19.4084 41.3871 21.5 43.1725 21.5M43.1725 21.5H52.2031C55.1671 21.5 57.822 23.5049 58.1369 26.4544C58.2679 27.6736 58.3333 28.911 58.3333 30.1667C58.3453 38.0717 55.6439 45.7413 50.6807 51.894C49.5598 53.2864 47.8293 54 46.044 54H34.4422C33.0451 54.0009 31.657 53.7765 30.3313 53.3356L21.3353 50.3311C20.0097 49.8902 18.6216 49.6658 17.2245 49.6667H12.556C12.7968 50.2579 13.0568 50.8376 13.336 51.4058C13.9051 52.5613 13.1107 54 11.8251 54H9.20201C6.63379 54 4.25334 52.5036 3.50512 50.048C2.50454 46.764 1.9973 43.3497 2.00001 39.9167C2.00001 35.4302 2.85223 31.146 4.40068 27.2113C5.28468 24.9753 7.53801 23.6667 9.94446 23.6667H12.9865C14.35 23.6667 15.1387 25.2729 14.4309 26.44C11.9637 30.5018 10.6624 35.1643 10.6696 39.9167C10.667 43.2579 11.3085 46.5683 12.5589 49.6667M43.1725 21.5H36.6667" stroke="url(#paint0_linear_24_71)" stroke-width="3" stroke-linecap="round" stroke-linejoin="round"/>
<defs>
<linearGradient id="paint0_linear_24_71" x1="58" y1="2" x2="6.5" y2="50.5" gradientUnits="userSpaceOnUse">
<stop stop-color="#34C2AA"/>
<stop offset="1" stop-color="#117A68"/>
</linearGradient>
</defs>
</svg>
