<svg width="137" height="48" viewBox="0 0 137 48" fill="none" xmlns="http://www.w3.org/2000/svg">
<g clip-path="url(#clip0_90_338)">
<path d="M63.3233 30.4993V25.0829L60.6616 16.842H63.2768L64.7414 21.6424L66.1013 16.842H68.6352L66.0083 25.0829V30.4993H63.3233Z" fill="#11394C"/>
<path d="M73.0287 30.6971C72.1105 30.6971 71.3782 30.4995 70.8319 30.1159C70.2972 29.7323 69.9137 29.1744 69.6812 28.4654C69.4488 27.7564 69.3325 26.9195 69.3325 25.978V21.4101C69.3325 20.4337 69.4488 19.5853 69.6812 18.8879C69.9137 18.1788 70.3321 17.6325 70.9249 17.249C71.5177 16.8654 72.3197 16.6794 73.3309 16.6794C74.3421 16.6794 75.086 16.8422 75.6439 17.1676C76.2135 17.4931 76.6203 17.958 76.8644 18.5508C77.1085 19.1436 77.2363 19.8526 77.2363 20.6778V21.4682H74.5281V20.5035C74.5281 20.1432 74.5049 19.8293 74.4584 19.5504C74.4119 19.2714 74.3073 19.0622 74.1445 18.8995C73.9818 18.7368 73.7145 18.667 73.3658 18.667C73.0171 18.667 72.7265 18.76 72.5522 18.9576C72.3778 19.1552 72.2732 19.3993 72.2267 19.6899C72.1802 19.9921 72.157 20.3059 72.157 20.643V26.6987C72.157 27.0822 72.1918 27.4193 72.2616 27.7215C72.3313 28.0237 72.4592 28.2562 72.6451 28.4305C72.8311 28.5933 73.0984 28.6862 73.4471 28.6862C73.7958 28.6862 74.0632 28.5933 74.2608 28.4189C74.4467 28.2329 74.5862 27.9889 74.656 27.6866C74.7257 27.3728 74.7606 27.0241 74.7606 26.6289V25.176H73.4239V23.4907H77.2712V30.4995H75.4463L75.272 29.2674C75.0976 29.6858 74.8187 30.0229 74.4584 30.2903C74.098 30.5576 73.6099 30.6971 73.0055 30.6971H73.0287Z" fill="#11394C"/>
<path d="M80.2005 30.4994V18.9227H78.0967V16.8538H85.0706V18.9227H83.0017V30.4994H80.2005Z" fill="#11394C"/>
<path d="M88.0807 30.4993V25.0829L85.4189 16.842H88.0342L89.4987 21.6424L90.8586 16.842H93.3809L90.754 25.0829V30.4993H88.069H88.0807Z" fill="#11394C"/>
<path d="M94.5552 30.4993V16.842H98.0073C98.6001 16.842 99.158 16.8885 99.6578 16.9931C100.169 17.0978 100.611 17.2721 100.994 17.5278C101.378 17.7835 101.68 18.1438 101.889 18.5972C102.099 19.0505 102.203 19.6432 102.203 20.3755C102.203 20.9218 102.122 21.3984 101.971 21.7819C101.82 22.1655 101.587 22.4793 101.297 22.7002C101.006 22.921 100.646 23.0721 100.216 23.1535C100.739 23.2348 101.192 23.4092 101.552 23.6881C101.913 23.9671 102.18 24.339 102.366 24.804C102.54 25.2689 102.633 25.8268 102.633 26.4777C102.633 27.1635 102.552 27.7563 102.378 28.2677C102.203 28.7675 101.948 29.1859 101.61 29.5114C101.273 29.8368 100.855 30.0809 100.367 30.2436C99.867 30.4064 99.2975 30.4877 98.6466 30.4877H94.5668L94.5552 30.4993ZM97.3331 22.3631H98.0189C98.5071 22.3631 98.8674 22.2933 99.1115 22.1539C99.3556 22.0144 99.5299 21.8052 99.6229 21.5146C99.7159 21.224 99.7624 20.8753 99.7624 20.4569C99.7624 20.0384 99.6927 19.7014 99.5532 19.4573C99.4137 19.2016 99.2045 19.0272 98.9139 18.911C98.6233 18.7947 98.263 18.7366 97.8213 18.7366H97.3215V22.3631H97.3331ZM97.3331 28.5466H98.1119C98.8093 28.5466 99.2858 28.3723 99.5532 28.0236C99.8205 27.6749 99.9484 27.1519 99.9484 26.4545C99.9484 25.9198 99.8902 25.4897 99.7624 25.1643C99.6345 24.8388 99.4369 24.6064 99.1696 24.4553C98.8906 24.3042 98.5303 24.2228 98.0654 24.2228H97.3448V28.535L97.3331 28.5466Z" fill="#11394C"/>
<path d="M103.516 30.4993L106.167 16.842H109.247L111.874 30.4993H109.293L108.805 27.5006H106.643L106.12 30.4993H103.505H103.516ZM106.899 25.7919H108.538L107.712 20.2825L106.899 25.7919Z" fill="#11394C"/>
<path d="M113.269 30.4993V16.842H116.802C117.72 16.842 118.511 16.9467 119.173 17.1559C119.836 17.3651 120.335 17.737 120.696 18.2601C121.044 18.7831 121.23 19.5154 121.23 20.4452C121.23 21.0032 121.184 21.503 121.091 21.933C120.998 22.3631 120.824 22.7466 120.591 23.0605C120.359 23.3743 120.01 23.6416 119.568 23.8276L121.451 30.4877H118.604L117.034 24.3042H116.058V30.4877H113.28L113.269 30.4993ZM116.047 22.6653H116.86C117.313 22.6653 117.662 22.5955 117.918 22.4444C118.174 22.305 118.36 22.0725 118.464 21.7819C118.569 21.4797 118.627 21.1194 118.627 20.6777C118.627 20.0501 118.511 19.5735 118.278 19.2364C118.046 18.911 117.616 18.7366 116.988 18.7366H116.047V22.6653Z" fill="#11394C"/>
<path d="M123.09 30.4993V16.842H125.868V28.6048H129.065V30.4877H123.079L123.09 30.4993Z" fill="#11394C"/>
<path d="M130.738 30.4993V25.0829L128.076 16.842H130.691L132.156 21.6424L133.516 16.842H136.038L133.411 25.0829V30.4993H130.726H130.738Z" fill="#11394C"/>
<path d="M60.7314 44.6215L62.7539 35.1254H64.0324L66.0665 44.6215H64.8112L64.3811 42.2272H62.4401L61.9868 44.6215H60.7431H60.7314ZM61.7543 33.7073V32.4055H63.0212V33.7073H61.7543ZM62.6144 41.2857H64.1952L63.3932 37.0083L62.6028 41.2857H62.6144ZM63.7767 33.7073V32.4055H65.0437V33.7073H63.7767Z" fill="#11394C"/>
<path d="M67.5776 44.6216V36.1017H65.9736V35.1138H70.4602V36.1017H68.9027V44.6216H67.5776Z" fill="#11394C"/>
<path d="M71.4482 44.6217V35.1255H72.75V44.6217H71.4482Z" fill="#11394C"/>
<path d="M75.737 44.6216V41.2625L73.6797 35.1138H74.9117L76.3647 39.7049L77.7943 35.1138H79.038L76.9923 41.2625V44.6216H75.7254H75.737ZM76.0392 34.5558L76.725 32.2312H77.9803L76.6669 34.5558H76.0392Z" fill="#11394C"/>
<path d="M78.9448 44.6217L80.9673 35.1255H82.2458L84.2799 44.6217H83.0246L82.5945 42.2273H80.6534L80.2001 44.6217H78.9564H78.9448ZM80.8162 41.2742H82.3969L81.5949 36.9968L80.8045 41.2742H80.8162Z" fill="#11394C"/>
<path d="M87.5927 44.7261C86.9185 44.7261 86.3955 44.5866 86.0235 44.3077C85.6516 44.0287 85.3959 43.6451 85.2448 43.1686C85.0937 42.692 85.0239 42.1574 85.0239 41.5762V38.2171C85.0239 37.5778 85.0937 37.0199 85.2448 36.5433C85.3842 36.0668 85.6516 35.6948 86.0235 35.4391C86.3955 35.1834 86.9185 35.0439 87.5927 35.0439C88.1854 35.0439 88.662 35.1486 89.0107 35.3694C89.3594 35.5902 89.6035 35.9041 89.7662 36.3109C89.9173 36.7177 89.9987 37.2059 89.9987 37.7754V38.5309H88.7434V37.8568C88.7434 37.5081 88.7317 37.1942 88.6969 36.9269C88.662 36.6596 88.569 36.4504 88.4063 36.2993C88.2552 36.1482 87.9878 36.0784 87.6159 36.0784C87.244 36.0784 86.965 36.1598 86.7907 36.3225C86.6163 36.4852 86.5117 36.7061 86.4536 36.9966C86.4071 37.2872 86.3722 37.6359 86.3722 38.0195V41.7854C86.3722 42.262 86.4071 42.6339 86.4885 42.9129C86.5698 43.1918 86.6977 43.3894 86.872 43.5057C87.0464 43.6219 87.2905 43.68 87.6043 43.68C87.9646 43.68 88.2203 43.5986 88.383 43.4359C88.5341 43.2732 88.6388 43.0524 88.6736 42.7734C88.7085 42.4944 88.7317 42.169 88.7317 41.7854V41.0764H89.987V41.7854C89.987 42.3666 89.9173 42.878 89.7778 43.3197C89.6383 43.7614 89.3943 44.1101 89.0456 44.3542C88.6969 44.5982 88.2203 44.7261 87.5927 44.7261ZM87.6508 47.3762C87.5229 47.3762 87.3951 47.3762 87.2672 47.3413C87.1394 47.3065 86.9999 47.2948 86.872 47.26V46.6323C86.9766 46.6672 87.0696 46.6788 87.1742 46.7021C87.2788 46.7021 87.3718 46.7137 87.4648 46.7137C87.6624 46.7137 87.8368 46.6788 87.9762 46.6091C88.1157 46.5393 88.1854 46.4231 88.1854 46.2604C88.1854 46.1209 88.1506 46.0047 88.0692 45.9233C87.9878 45.8419 87.8832 45.7722 87.7321 45.7257C87.581 45.6792 87.4067 45.6327 87.1975 45.5978V44.6215H87.8251V45.284C88.2203 45.284 88.5341 45.377 88.7666 45.5514C89.0107 45.7373 89.1269 45.9814 89.1269 46.2952C89.1269 46.5393 89.0688 46.7485 88.9293 46.9113C88.8015 47.074 88.6271 47.1902 88.4063 47.2716C88.1854 47.353 87.9297 47.3878 87.6624 47.3878L87.6508 47.3762Z" fill="#11394C"/>
<path d="M91.2539 44.6217V35.1255H92.579V43.6802H95.0082V44.6333H91.2539V44.6217Z" fill="#11394C"/>
<path d="M95.3921 44.6217L97.4145 35.1255H98.6931L100.727 44.6217H99.4718L99.0418 42.2273H97.1007L96.6474 44.6217H95.4037H95.3921ZM97.2634 41.2742H98.8442L98.0422 36.9968L97.2518 41.2742H97.2634Z" fill="#11394C"/>
<path d="M101.68 44.6217V35.1255H102.587L105.283 41.4369V35.1255H106.388V44.6217H105.539L102.808 38.1359V44.6217H101.68Z" fill="#11394C"/>
<path d="M107.875 44.6217V35.1255H109.944C110.653 35.1255 111.2 35.2301 111.618 35.4509C112.025 35.6718 112.316 35.9856 112.502 36.4157C112.688 36.8457 112.769 37.3804 112.769 38.0197V41.5183C112.769 42.1924 112.676 42.762 112.502 43.2153C112.327 43.6802 112.037 44.0289 111.641 44.2614C111.246 44.4938 110.723 44.6217 110.049 44.6217H107.875ZM109.201 43.6686H109.956C110.444 43.6686 110.781 43.5756 110.991 43.3896C111.2 43.2036 111.316 42.9247 111.362 42.5644C111.409 42.204 111.432 41.774 111.432 41.2626V38.1824C111.432 37.6942 111.397 37.2874 111.339 36.9852C111.281 36.683 111.142 36.4622 110.932 36.3111C110.723 36.16 110.386 36.1018 109.933 36.1018H109.212V43.6686H109.201Z" fill="#11394C"/>
<path d="M115.43 44.6216V41.2625L113.373 35.1138H114.605L116.058 39.7049L117.488 35.1138H118.731L116.686 41.2625V44.6216H115.419H115.43Z" fill="#11394C"/>
<path d="M119.615 44.6217V35.1255H121.521C122.149 35.1255 122.683 35.2069 123.09 35.3812C123.509 35.5555 123.811 35.8229 124.008 36.1948C124.206 36.5668 124.311 37.0549 124.311 37.6594C124.311 38.0313 124.276 38.3567 124.194 38.659C124.113 38.9612 123.985 39.2169 123.822 39.4261C123.648 39.6353 123.427 39.7864 123.148 39.8794L124.497 44.6449H123.218L121.974 40.1932H120.94V44.6449H119.615V44.6217ZM120.94 39.2169H121.44C121.812 39.2169 122.114 39.1704 122.358 39.0774C122.59 38.9844 122.765 38.8217 122.869 38.6008C122.974 38.3684 123.032 38.0545 123.032 37.6477C123.032 37.0898 122.927 36.6946 122.73 36.4505C122.532 36.2065 122.125 36.0786 121.521 36.0786H120.94V39.2169Z" fill="#11394C"/>
<path d="M126.972 44.6216V41.2625L124.915 35.1138H126.147L127.6 39.7049L129.03 35.1138H130.273L128.228 41.2625V44.6216H126.961H126.972Z" fill="#11394C"/>
<path d="M133.365 44.726C132.819 44.726 132.366 44.6098 132.005 44.3774C131.645 44.1449 131.366 43.8194 131.18 43.401C130.994 42.9826 130.878 42.506 130.854 41.9597L132.028 41.6459C132.052 41.983 132.11 42.3084 132.191 42.6222C132.273 42.9361 132.412 43.1918 132.598 43.3894C132.784 43.587 133.051 43.6916 133.388 43.6916C133.725 43.6916 133.993 43.5986 134.167 43.401C134.341 43.215 134.434 42.9361 134.434 42.5758C134.434 42.1457 134.341 41.797 134.144 41.5413C133.946 41.2739 133.702 41.0182 133.412 40.7509L131.819 39.3445C131.505 39.0655 131.273 38.775 131.133 38.4495C130.994 38.1241 130.913 37.7289 130.913 37.2523C130.913 36.5549 131.11 36.0202 131.505 35.6367C131.901 35.2531 132.447 35.0671 133.133 35.0671C133.505 35.0671 133.842 35.1136 134.121 35.2182C134.411 35.3112 134.644 35.4623 134.841 35.6715C135.039 35.8808 135.19 36.1365 135.295 36.4387C135.399 36.7409 135.481 37.1128 135.527 37.5196L134.4 37.8218C134.376 37.508 134.33 37.2174 134.26 36.9617C134.19 36.6944 134.063 36.4852 133.888 36.3341C133.714 36.183 133.458 36.09 133.133 36.09C132.807 36.09 132.551 36.183 132.366 36.3573C132.18 36.5317 132.087 36.799 132.087 37.1361C132.087 37.4267 132.133 37.6591 132.238 37.8567C132.331 38.0427 132.493 38.2403 132.714 38.4263L134.318 39.8327C134.679 40.1465 134.992 40.5184 135.271 40.9485C135.55 41.3786 135.678 41.9016 135.678 42.4944C135.678 42.9593 135.585 43.3661 135.388 43.7032C135.19 44.0403 134.923 44.3076 134.586 44.482C134.248 44.6679 133.853 44.7493 133.412 44.7493L133.365 44.726ZM133.319 47.3761C133.191 47.3761 133.063 47.3761 132.935 47.3413C132.807 47.3064 132.668 47.2948 132.54 47.2599V46.6323C132.644 46.6671 132.737 46.6788 132.842 46.702C132.947 46.702 133.04 46.7136 133.133 46.7136C133.33 46.7136 133.505 46.6788 133.644 46.609C133.784 46.5393 133.853 46.423 133.853 46.2603C133.853 46.1208 133.818 46.0046 133.737 45.9232C133.656 45.8419 133.539 45.7721 133.4 45.7256C133.26 45.6792 133.075 45.6327 132.865 45.5978V44.6214H133.493V45.284C133.888 45.284 134.202 45.3769 134.434 45.5513C134.679 45.7373 134.795 45.9814 134.795 46.2952C134.795 46.5393 134.737 46.7485 134.597 46.9112C134.469 47.0739 134.295 47.1902 134.074 47.2715C133.853 47.3529 133.598 47.3878 133.33 47.3878L133.319 47.3761Z" fill="#11394C"/>
<path d="M44.2845 15.122L44.087 15.4474C42.6457 17.8418 40.9487 20.12 39.3679 22.4214C39.2982 22.526 39.2284 22.6306 39.1587 22.7352C37.5314 25.0947 35.9158 27.4658 34.3234 29.837C32.8008 32.1384 32.7775 34.8001 32.7427 37.4734C32.6962 40.2049 32.8008 42.948 32.4172 45.6562C32.4056 45.7492 32.394 45.8538 32.3475 45.9352C30.9062 46.5163 29.3719 46.9696 27.7447 47.2951C27.7331 47.2718 27.7214 47.2486 27.7214 47.2253C27.6749 47.0626 27.6633 46.8883 27.6633 46.7139C27.5936 41.7275 27.6633 36.7296 27.6633 31.7432C27.6866 29.0001 27.582 25.9897 28.7094 23.4326L28.8489 23.142C29.9996 21.3288 31.7315 20.0735 33.4982 18.9228C33.7655 18.7484 34.0329 18.5741 34.3118 18.3997C34.5675 18.3997 35.1603 17.8534 35.3812 17.7139C35.7415 17.4815 36.1018 17.2606 36.4505 17.0282C37.1944 16.5516 37.9383 16.0634 38.6821 15.5869C40.1002 14.6803 41.5182 13.7853 42.9479 12.9019C43.0176 12.8554 43.0874 12.8206 43.1803 12.8206C43.2617 12.8206 43.3431 12.8903 43.4128 12.9484C43.715 13.2274 44.1102 13.7039 44.2962 14.1921C44.4124 14.5175 44.4357 14.8546 44.2962 15.1336L44.2845 15.122Z" fill="#11394C"/>
<path d="M35.2297 4.27738C35.2064 4.53309 35.067 4.81205 34.8577 5.11425C32.7423 8.26415 30.6269 11.4257 28.5114 14.5756C28 15.3543 27.477 16.1098 26.9539 16.8886C26.9539 16.8886 26.9423 16.9235 26.9307 16.9351C26.5123 17.5627 25.7102 18.3764 25.5243 19.1086C25.4545 19.3992 25.5243 19.806 25.5243 20.1082V47.6437C24.4549 47.7599 23.3507 47.8297 22.2233 47.8297C21.0958 47.8297 19.9916 47.7599 18.9223 47.6437V20.1082C18.9223 19.806 18.992 19.3992 18.9223 19.1086C18.7479 18.3764 17.9343 17.5511 17.5159 16.9351C17.5042 16.9235 17.4926 16.9002 17.4926 16.8886C16.9812 16.1098 16.4582 15.3543 15.9351 14.5756C13.8197 11.4257 11.6926 8.26415 9.58882 5.11425C9.3796 4.81205 9.24012 4.52147 9.21687 4.27738C9.19363 3.95193 9.36798 3.67297 9.84453 3.39401C13.4245 1.24371 17.7135 2.68365e-05 21.9443 2.68365e-05H22.2117C26.5123 -0.0464661 30.8942 1.20884 34.5904 3.38239C35.067 3.66135 35.2413 3.95193 35.2181 4.26576L35.2297 4.27738Z" fill="#11394C"/>
<path d="M16.7257 46.7138C16.7257 46.8882 16.7257 47.0625 16.6676 47.2252C16.6676 47.2485 16.656 47.2717 16.6443 47.295C15.0287 46.9695 13.4828 46.5162 12.0415 45.9351C12.0067 45.8537 11.9834 45.7491 11.9718 45.6561C11.5882 42.9363 11.6812 40.2048 11.6463 37.4734C11.5999 34.8 11.5882 32.1499 10.0656 29.8369C8.47321 27.4657 6.84595 25.0946 5.23032 22.7351C5.16058 22.6305 5.09084 22.5259 5.0211 22.4213C3.44034 20.1199 1.74335 17.8417 0.30207 15.4473L0.104475 15.1219C-0.0582508 14.8429 -0.0233811 14.5058 0.104475 14.1804C0.278823 13.6922 0.674013 13.2157 0.987841 12.9367C1.05758 12.867 1.12732 12.8205 1.22031 12.8088C1.30167 12.8088 1.38303 12.8553 1.44115 12.8902C2.87081 13.7736 4.30046 14.6686 5.70687 15.5752C6.45076 16.0517 7.19465 16.5399 7.93854 17.0164C8.28723 17.2489 8.64755 17.4698 9.00787 17.7022C9.24034 17.8417 9.8215 18.388 10.0772 18.388C10.3445 18.5623 10.6119 18.7367 10.8908 18.911C12.6692 20.0734 14.4011 21.3287 15.5401 23.1303L15.6796 23.4209C16.8071 25.978 16.7025 28.9884 16.7141 31.7315C16.7141 36.7178 16.7954 41.7158 16.7141 46.7022L16.7257 46.7138Z" fill="#11394C"/>
<path d="M52.0835 13.9131V47.8297" stroke="#231F20" stroke-width="2.32465" stroke-miterlimit="10"/>
</g>
<defs>
<clipPath id="clip0_90_338">
<rect width="136.05" height="47.8296" fill="white"/>
</clipPath>
</defs>
</svg>
