<svg width="24" height="24" viewBox="0 0 24 24" fill="none" xmlns="http://www.w3.org/2000/svg">
<path d="M12.4604 22.75C12.2904 22.75 12.1204 22.75 11.9504 22.74C6.35044 22.49 1.67044 17.98 1.28044 12.48C0.940437 7.76 3.67044 3.35 8.07044 1.5C9.32044 0.98 9.98044 1.38 10.2604 1.67C10.5404 1.95 10.9304 2.6 10.4104 3.79C9.95044 4.85 9.72044 5.98 9.73044 7.14C9.75044 11.57 13.4304 15.33 17.9204 15.51C18.5704 15.54 19.2104 15.49 19.8304 15.38C21.1504 15.14 21.7004 15.67 21.9104 16.01C22.1204 16.35 22.3604 17.08 21.5604 18.16C19.4404 21.06 16.0704 22.75 12.4604 22.75ZM2.77044 12.37C3.11044 17.13 7.17044 21.03 12.0104 21.24C15.3004 21.4 18.4204 19.9 20.3404 17.28C20.4904 17.07 20.5604 16.92 20.5904 16.84C20.5004 16.83 20.3404 16.82 20.0904 16.87C19.3604 17 18.6004 17.05 17.8504 17.02C12.5704 16.81 8.25044 12.38 8.22044 7.16C8.22044 5.78 8.49044 4.45 9.04044 3.2C9.14044 2.98 9.16044 2.83 9.17044 2.75C9.08044 2.75 8.92044 2.77 8.66044 2.88C4.85044 4.48 2.49044 8.3 2.77044 12.37Z" fill="white"/>
</svg>
