<svg width="24" height="25" viewBox="0 0 24 25" fill="none" xmlns="http://www.w3.org/2000/svg">
<path fill-rule="evenodd" clip-rule="evenodd" d="M12.398 19.8333C13.881 19.0641 19 16.0456 19 11.0293C19 7.1633 15.866 4.0293 12 4.0293C8.13401 4.0293 5 7.1633 5 11.0293C5 16.0456 10.119 19.0641 11.602 19.8333C11.8548 19.9644 12.1452 19.9644 12.398 19.8333ZM12 14.0293C13.6569 14.0293 15 12.6862 15 11.0293C15 9.37244 13.6569 8.0293 12 8.0293C10.3431 8.0293 9 9.37244 9 11.0293C9 12.6862 10.3431 14.0293 12 14.0293Z" fill="#222222"/>
</svg>
