<svg width="19" height="18" viewBox="0 0 19 18" fill="none" xmlns="http://www.w3.org/2000/svg">
<path d="M4.002 17L13.133 0.899999H15.847L6.716 17H4.002ZM15.111 17.276C14.3903 17.276 13.731 17.115 13.133 16.793C12.5503 16.4557 12.0827 15.988 11.73 15.39C11.3773 14.7767 11.201 14.056 11.201 13.228C11.201 12.3847 11.3773 11.664 11.73 11.066C12.0827 10.468 12.5503 10.008 13.133 9.686C13.731 9.34867 14.3903 9.18 15.111 9.18C15.8623 9.18 16.5217 9.34867 17.089 9.686C17.6717 10.008 18.1317 10.468 18.469 11.066C18.8217 11.664 18.998 12.3847 18.998 13.228C18.998 14.056 18.8217 14.7767 18.469 15.39C18.1317 15.988 17.6717 16.4557 17.089 16.793C16.5063 17.115 15.847 17.276 15.111 17.276ZM15.088 15.344C15.41 15.344 15.7013 15.2673 15.962 15.114C16.2227 14.9453 16.4297 14.7077 16.583 14.401C16.7363 14.079 16.813 13.688 16.813 13.228C16.813 12.7527 16.7363 12.3617 16.583 12.055C16.4297 11.7483 16.2227 11.5183 15.962 11.365C15.7167 11.1963 15.433 11.112 15.111 11.112C14.8043 11.112 14.5207 11.1963 14.26 11.365C13.9993 11.5183 13.7923 11.7483 13.639 12.055C13.4857 12.3617 13.409 12.7527 13.409 13.228C13.409 13.688 13.4857 14.079 13.639 14.401C13.7923 14.7077 13.9917 14.9453 14.237 15.114C14.4977 15.2673 14.7813 15.344 15.088 15.344ZM4.876 8.72C4.14 8.72 3.473 8.559 2.875 8.237C2.29233 7.915 1.82467 7.44733 1.472 6.834C1.13467 6.22067 0.966 5.5 0.966 4.672C0.966 3.844 1.13467 3.131 1.472 2.533C1.82467 1.91967 2.3 1.452 2.898 1.13C3.496 0.807999 4.15533 0.646999 4.876 0.646999C5.612 0.646999 6.27133 0.807999 6.854 1.13C7.43667 1.452 7.89667 1.91967 8.234 2.533C8.58667 3.131 8.763 3.844 8.763 4.672C8.763 5.5 8.58667 6.22067 8.234 6.834C7.89667 7.44733 7.43667 7.915 6.854 8.237C6.27133 8.559 5.612 8.72 4.876 8.72ZM4.853 6.788C5.175 6.788 5.46633 6.71133 5.727 6.558C5.98767 6.38933 6.187 6.15167 6.325 5.845C6.47833 5.523 6.555 5.132 6.555 4.672C6.555 4.212 6.47833 3.821 6.325 3.499C6.187 3.177 5.98767 2.93933 5.727 2.786C5.46633 2.61733 5.18267 2.533 4.876 2.533C4.56933 2.533 4.278 2.61733 4.002 2.786C3.74133 2.93933 3.53433 3.177 3.381 3.499C3.22767 3.821 3.151 4.212 3.151 4.672C3.151 5.132 3.22767 5.523 3.381 5.845C3.53433 6.15167 3.74133 6.38933 4.002 6.558C4.26267 6.71133 4.54633 6.788 4.853 6.788Z" fill="#34C2AA"/>
</svg>
