<svg width="42" height="43" viewBox="0 0 42 43" fill="none" xmlns="http://www.w3.org/2000/svg">
<g filter="url(#filter0_d_4_94)">
<rect x="4" y="4" width="34" height="35" rx="8" fill="white"/>
<rect x="4.5" y="4.5" width="33" height="34" rx="7.5" stroke="#EEEEEE"/>
</g>
<path d="M28.1963 15.5C28.2186 15.4996 28.2761 15.5029 28.3389 15.5176C28.4048 15.5331 28.4384 15.5525 28.4473 15.5596C28.4502 15.5619 28.4529 15.5642 28.457 15.5732C28.4628 15.5861 28.4688 15.6068 28.4756 15.6455C28.4815 15.6795 28.4908 15.7526 28.4961 15.8408C28.5014 15.9295 28.5013 16.0148 28.4951 16.0791C28.2759 18.3371 27.3214 23.859 26.833 26.4189C26.6368 27.4472 26.3114 27.4915 26.2715 27.4951C25.9884 27.5206 25.7186 27.4346 25.3896 27.2451C25.2235 27.1494 25.0526 27.0339 24.8623 26.9014C24.677 26.7723 24.47 26.6259 24.2529 26.4863C23.6085 26.0722 23.1047 25.7356 22.6025 25.4004C22.1004 25.0651 21.5996 24.7301 20.9668 24.3213C20.6289 24.103 20.4997 23.951 20.4561 23.8691C20.4326 23.8252 20.4319 23.8094 20.4541 23.7598C20.4923 23.6744 20.5832 23.556 20.7617 23.3779C20.8469 23.293 20.9402 23.2055 21.0449 23.1064C21.1474 23.0096 21.2586 22.9036 21.3691 22.791C21.3696 22.7906 21.3712 22.7889 21.374 22.7861C21.3774 22.7829 21.382 22.7788 21.3877 22.7734C21.3993 22.7624 21.4147 22.7481 21.4336 22.7305C21.4717 22.695 21.5224 22.6483 21.584 22.5918C21.7073 22.4788 21.8716 22.3281 22.0645 22.1523C22.4494 21.8014 22.9447 21.35 23.4355 20.8955C23.9257 20.4417 24.4153 19.9814 24.7881 19.6143C24.9737 19.4314 25.1361 19.2665 25.2559 19.1348C25.315 19.0697 25.37 19.0058 25.4141 18.9482C25.4359 18.9196 25.4605 18.8858 25.4824 18.8496C25.4993 18.8217 25.538 18.756 25.5586 18.6699C25.579 18.5847 25.5839 18.4746 25.5674 18.3652C25.5528 18.269 25.5122 18.1129 25.3896 17.9775L25.332 17.9209L25.2695 17.8721C25.122 17.7705 24.965 17.7489 24.8564 17.748C24.7976 17.7476 24.7418 17.7535 24.6953 17.7607L24.5898 17.7812C24.5067 17.7997 24.432 17.84 24.4209 17.8457C24.3873 17.8631 24.3489 17.8852 24.3076 17.9092C24.224 17.9577 24.1116 18.0258 23.9727 18.1123C23.6936 18.2861 23.2939 18.5419 22.7754 18.8779C21.7376 19.5504 20.2147 20.5508 18.208 21.8789L18.2051 21.8809C17.6633 22.2456 17.2316 22.3821 16.8965 22.375C16.693 22.3706 16.3549 22.3097 15.9453 22.209C15.547 22.1111 15.1173 21.9849 14.748 21.8672C14.2484 21.7079 13.8946 21.6129 13.6445 21.4941C13.6042 21.475 13.5745 21.4558 13.5508 21.4414C13.5637 21.4307 13.5783 21.4177 13.5967 21.4043C13.7293 21.3077 13.9503 21.1916 14.2812 21.0625L14.2891 21.0596L14.2959 21.0566C18.5915 19.2218 21.4523 18.0132 22.8809 17.4307C24.928 16.5959 26.1529 16.1108 26.9336 15.833C27.7227 15.5523 28.0074 15.5033 28.1963 15.5Z" fill="black" stroke="black"/>
<defs>
<filter id="filter0_d_4_94" x="0" y="0" width="42" height="43" filterUnits="userSpaceOnUse" color-interpolation-filters="sRGB">
<feFlood flood-opacity="0" result="BackgroundImageFix"/>
<feColorMatrix in="SourceAlpha" type="matrix" values="0 0 0 0 0 0 0 0 0 0 0 0 0 0 0 0 0 0 127 0" result="hardAlpha"/>
<feOffset/>
<feGaussianBlur stdDeviation="2"/>
<feComposite in2="hardAlpha" operator="out"/>
<feColorMatrix type="matrix" values="0 0 0 0 0 0 0 0 0 0 0 0 0 0 0 0 0 0 0.08 0"/>
<feBlend mode="normal" in2="BackgroundImageFix" result="effect1_dropShadow_4_94"/>
<feBlend mode="normal" in="SourceGraphic" in2="effect1_dropShadow_4_94" result="shape"/>
</filter>
</defs>
</svg>
