<svg width="42" height="43" viewBox="0 0 42 43" fill="none" xmlns="http://www.w3.org/2000/svg">
<g filter="url(#filter0_d_4_97)">
<rect x="4" y="4" width="34" height="35" rx="8" fill="white"/>
<rect x="4.5" y="4.5" width="33" height="34" rx="7.5" stroke="#EEEEEE"/>
</g>
<g clip-path="url(#clip0_4_97)">
<path d="M28.0508 13.9101C27.134 12.984 26.042 12.2497 24.8384 11.7501C23.6349 11.2505 22.3439 10.9955 21.0408 11.0001C15.5808 11.0001 11.1308 15.4501 11.1308 20.9101C11.1308 22.6601 11.5908 24.3601 12.4508 25.8601L11.0508 31.0001L16.3008 29.6201C17.7508 30.4101 19.3808 30.8301 21.0408 30.8301C26.5008 30.8301 30.9508 26.3801 30.9508 20.9201C30.9508 18.2701 29.9208 15.7801 28.0508 13.9101ZM21.0408 29.1501C19.5608 29.1501 18.1108 28.7501 16.8408 28.0001L16.5408 27.8201L13.4208 28.6401L14.2508 25.6001L14.0508 25.2901C13.2285 23.977 12.7919 22.4593 12.7908 20.9101C12.7908 16.3701 16.4908 12.6701 21.0308 12.6701C23.2308 12.6701 25.3008 13.5301 26.8508 15.0901C27.6183 15.854 28.2265 16.7627 28.6402 17.7635C29.0539 18.7642 29.2648 19.8372 29.2608 20.9201C29.2808 25.4601 25.5808 29.1501 21.0408 29.1501ZM25.5608 22.9901C25.3108 22.8701 24.0908 22.2701 23.8708 22.1801C23.6408 22.1001 23.4808 22.0601 23.3108 22.3001C23.1408 22.5501 22.6708 23.1101 22.5308 23.2701C22.3908 23.4401 22.2408 23.4601 21.9908 23.3301C21.7408 23.2101 20.9408 22.9401 20.0008 22.1001C19.2608 21.4401 18.7708 20.6301 18.6208 20.3801C18.4808 20.1301 18.6008 20.0001 18.7308 19.8701C18.8408 19.7601 18.9808 19.5801 19.1008 19.4401C19.2208 19.3001 19.2708 19.1901 19.3508 19.0301C19.4308 18.8601 19.3908 18.7201 19.3308 18.6001C19.2708 18.4801 18.7708 17.2601 18.5708 16.7601C18.3708 16.2801 18.1608 16.3401 18.0108 16.3301H17.5308C17.3608 16.3301 17.1008 16.3901 16.8708 16.6401C16.6508 16.8901 16.0108 17.4901 16.0108 18.7101C16.0108 19.9301 16.9008 21.1101 17.0208 21.2701C17.1408 21.4401 18.7708 23.9401 21.2508 25.0101C21.8408 25.2701 22.3008 25.4201 22.6608 25.5301C23.2508 25.7201 23.7908 25.6901 24.2208 25.6301C24.7008 25.5601 25.6908 25.0301 25.8908 24.4501C26.1008 23.8701 26.1008 23.3801 26.0308 23.2701C25.9608 23.1601 25.8108 23.1101 25.5608 22.9901Z" fill="black"/>
</g>
<defs>
<filter id="filter0_d_4_97" x="0" y="0" width="42" height="43" filterUnits="userSpaceOnUse" color-interpolation-filters="sRGB">
<feFlood flood-opacity="0" result="BackgroundImageFix"/>
<feColorMatrix in="SourceAlpha" type="matrix" values="0 0 0 0 0 0 0 0 0 0 0 0 0 0 0 0 0 0 127 0" result="hardAlpha"/>
<feOffset/>
<feGaussianBlur stdDeviation="2"/>
<feComposite in2="hardAlpha" operator="out"/>
<feColorMatrix type="matrix" values="0 0 0 0 0 0 0 0 0 0 0 0 0 0 0 0 0 0 0.08 0"/>
<feBlend mode="normal" in2="BackgroundImageFix" result="effect1_dropShadow_4_97"/>
<feBlend mode="normal" in="SourceGraphic" in2="effect1_dropShadow_4_97" result="shape"/>
</filter>
<clipPath id="clip0_4_97">
<rect width="24" height="24" fill="white" transform="translate(9 9)"/>
</clipPath>
</defs>
</svg>
