<svg width="42" height="43" viewBox="0 0 42 43" fill="none" xmlns="http://www.w3.org/2000/svg">
<g filter="url(#filter0_d_43_2974)">
<rect x="4" y="4" width="34" height="35" rx="8" fill="white" shape-rendering="crispEdges"/>
<rect x="4.5" y="4.5" width="33" height="34" rx="7.5" stroke="#EEEEEE" shape-rendering="crispEdges"/>
<path fill-rule="evenodd" clip-rule="evenodd" d="M29.9356 16.067C30.2459 16.3772 30.4687 16.7631 30.5818 17.1858C31 18.7461 31 22 31 22C31 22 31 25.2539 30.5818 26.8142C30.4687 27.2369 30.2459 27.6228 29.9356 27.933C29.6253 28.2433 29.2384 28.4672 28.8136 28.5823C27.25 29 21 29 21 29C21 29 14.75 29 13.1864 28.5823C12.7616 28.4672 12.3747 28.2433 12.0644 27.933C11.7541 27.6228 11.5313 27.2369 11.4182 26.8142C11 25.2539 11 22 11 22C11 22 11 18.7461 11.4182 17.1858C11.5313 16.7631 11.7541 16.3772 12.0644 16.067C12.3747 15.7567 12.7616 15.5328 13.1864 15.4177C14.75 15 21 15 21 15C21 15 27.25 15 28.8136 15.4177C29.2384 15.5328 29.6253 15.7567 29.9356 16.067ZM24.1818 22L18.9545 19.0453V24.9547L24.1818 22Z" fill="black"/>
</g>
<defs>
<filter id="filter0_d_43_2974" x="0" y="0" width="42" height="43" filterUnits="userSpaceOnUse" color-interpolation-filters="sRGB">
<feFlood flood-opacity="0" result="BackgroundImageFix"/>
<feColorMatrix in="SourceAlpha" type="matrix" values="0 0 0 0 0 0 0 0 0 0 0 0 0 0 0 0 0 0 127 0" result="hardAlpha"/>
<feOffset/>
<feGaussianBlur stdDeviation="2"/>
<feComposite in2="hardAlpha" operator="out"/>
<feColorMatrix type="matrix" values="0 0 0 0 0 0 0 0 0 0 0 0 0 0 0 0 0 0 0.08 0"/>
<feBlend mode="normal" in2="BackgroundImageFix" result="effect1_dropShadow_43_2974"/>
<feBlend mode="normal" in="SourceGraphic" in2="effect1_dropShadow_43_2974" result="shape"/>
</filter>
</defs>
</svg>
